<?xml version="1.0" encoding="UTF-8" standalone="no"?>
<svg
   version="1.1"
   id="svg14"
   sodipodi:docname="icons.svg"
   inkscape:version="1.3.2 (091e20ef0f, 2023-11-25)"
   width="32"
   height="32"
   viewBox="0 0 32 32"
   xmlns:inkscape="http://www.inkscape.org/namespaces/inkscape"
   xmlns:sodipodi="http://sodipodi.sourceforge.net/DTD/sodipodi-0.dtd"
   xmlns="http://www.w3.org/2000/svg"
   xmlns:svg="http://www.w3.org/2000/svg">
  <sodipodi:namedview
     id="namedview1"
     pagecolor="#ffffff"
     bordercolor="#666666"
     borderopacity="1.0"
     inkscape:showpageshadow="2"
     inkscape:pageopacity="0.0"
     inkscape:pagecheckerboard="0"
     inkscape:deskcolor="#d1d1d1"
     inkscape:zoom="19.78125"
     inkscape:cx="11.146919"
     inkscape:cy="15.974724"
     inkscape:window-width="1078"
     inkscape:window-height="1894"
     inkscape:window-x="1920"
     inkscape:window-y="24"
     inkscape:window-maximized="1"
     inkscape:current-layer="svg14" />
  <defs
     id="defs1">
    <symbol
       id="thumbs-up"
       viewBox="0 0 25 28">
      <title
         id="title2">thumbs-up</title>
      <path
         d="m 4,21 c 0,-0.547 -0.453,-1 -1,-1 -0.562,0 -1,0.453 -1,1 0,0.562 0.438,1 1,1 0.547,0 1,-0.438 1,-1 z m 2.5,-8 v 10 c 0,0.547 -0.453,1 -1,1 H 1 C 0.453,24 0,23.547 0,23 V 13 c 0,-0.547 0.453,-1 1,-1 h 4.5 c 0.547,0 1,0.453 1,1 z M 25,13 c 0,0.828 -0.328,1.719 -0.859,2.328 0.172,0.5 0.234,0.969 0.234,1.188 0.031,0.781 -0.203,1.516 -0.672,2.141 0.172,0.578 0.172,1.203 0,1.828 -0.156,0.578 -0.453,1.094 -0.844,1.469 0.094,1.172 -0.172,2.125 -0.766,2.828 -0.672,0.797 -1.703,1.203 -3.078,1.219 h -2.016 c -2.234,0 -4.344,-0.734 -6.031,-1.313 C 9.984,24.344 9.046,24.016 8.499,24 c -0.531,-0.016 -1,-0.453 -1,-1 V 12.984 c 0,-0.516 0.438,-0.953 0.953,-1 C 9.03,11.937 10.53,10.078 11.218,9.172 11.78,8.453 12.312,7.781 12.796,7.297 13.405,6.688 13.577,5.75 13.765,4.844 13.937,3.922 14.124,2.953 14.796,2.297 14.983,2.11 15.234,2 15.499,2 c 3.5,0 3.5,2.797 3.5,4 0,1.281 -0.453,2.188 -0.875,3 -0.172,0.344 -0.328,0.5 -0.453,1 h 4.328 c 1.625,0 3,1.375 3,3 z"
         id="path2" />
    </symbol>
    <symbol
       id="thumbs-o-up"
       viewBox="0 0 24 28">
      <title
         id="title1">thumbs-o-up</title>
      <path
         d="m 4,21 c 0,-0.547 -0.453,-1 -1,-1 -0.547,0 -1,0.453 -1,1 0,0.547 0.453,1 1,1 0.547,0 1,-0.453 1,-1 z m 18,-9 c 0,-1.062 -0.953,-2 -2,-2 H 14.5 C 14.5,8.172 16,6.844 16,5 16,3.172 15.641,2 13.5,2 12.5,3.016 13.016,5.406 11.5,7 11.062,7.453 10.688,7.938 10.297,8.422 9.594,9.328 7.735,12 6.5,12 H 6 v 10 h 0.5 c 0.875,0 2.312,0.562 3.156,0.859 C 11.375,23.453 13.156,24 15,24 h 1.891 c 1.766,0 3,-0.703 3,-2.609 0,-0.297 -0.031,-0.594 -0.078,-0.875 0.656,-0.359 1.016,-1.25 1.016,-1.969 0,-0.375 -0.094,-0.75 -0.281,-1.078 0.531,-0.5 0.828,-1.125 0.828,-1.859 0,-0.5 -0.219,-1.234 -0.547,-1.609 0.734,-0.016 1.172,-1.422 1.172,-2 z m 2,-0.016 c 0,0.906 -0.266,1.797 -0.766,2.547 0.094,0.344 0.141,0.719 0.141,1.078 0,0.781 -0.203,1.563 -0.594,2.25 0.031,0.219 0.047,0.453 0.047,0.672 0,1 -0.328,2 -0.938,2.781 C 21.921,24.265 19.906,26 17.015,26 H 14.999 C 12.78,26 10.718,25.344 8.655,24.625 8.202,24.469 6.936,24 6.499,24 h -4.5 c -1.109,0 -2,-0.891 -2,-2 V 12 c 0,-1.109 0.891,-2 2,-2 H 6.28 C 6.889,9.594 7.952,8.187 8.421,7.578 c 0.531,-0.688 1.078,-1.359 1.672,-2 0.938,-1 0.438,-3.469 2,-5 C 12.468,0.219 12.968,0 13.499,0 c 1.625,0 3.187,0.578 3.953,2.094 0.484,0.953 0.547,1.859 0.547,2.906 0,1.094 -0.281,2.031 -0.75,3 h 2.75 c 2.156,0 4,1.828 4,3.984 z"
         id="path1" />
    </symbol>
    <symbol
       id="graduation-cap"
       viewBox="0 0 36 28">
      <title
         id="title3">graduation-cap</title>
      <path
         d="M 27.719,13.062 28,17.999 c 0.125,2.203 -4.484,4 -10,4 -5.516,0 -10.125,-1.797 -10,-4 l 0.281,-4.937 8.969,2.828 c 0.25,0.078 0.5,0.109 0.75,0.109 0.25,0 0.5,-0.031 0.75,-0.109 z M 36,8 c 0,0.219 -0.141,0.406 -0.344,0.484 l -17.5,5.5 C 18.093,14 18.047,14 18,14 17.953,14 17.906,14 17.844,13.984 L 7.657,10.765 C 6.766,11.468 6.141,13.187 6.016,15.296 6.61,15.64 7,16.265 7,16.999 7,17.702 6.641,18.312 6.094,18.671 L 7,25.437 C 7.016,25.578 6.969,25.718 6.875,25.828 6.781,25.938 6.641,26 6.5,26 h -3 C 3.359,26 3.219,25.937 3.125,25.828 3.031,25.719 2.984,25.578 3,25.437 L 3.906,18.671 C 3.359,18.312 3,17.702 3,16.999 3,16.249 3.422,15.608 4.016,15.265 4.11,13.437 4.578,11.468 5.547,10.109 L 0.344,8.484 C 0.141,8.406 0,8.218 0,8 0,7.782 0.141,7.594 0.344,7.516 l 17.5,-5.5 C 17.907,2 17.953,2 18,2 c 0.047,0 0.094,0 0.156,0.016 l 17.5,5.5 C 35.859,7.594 36,7.782 36,8 Z"
         id="path3" />
    </symbol>
    <symbol
       id="pencil"
       viewBox="0 0 32 32">
      <title
         id="title4">pencil</title>
      <path
         d="m 27,0 c 2.761,0 5,2.239 5,5 0,1.126 -0.372,2.164 -1,3 L 29,10 22,3 24,1 C 24.836,0.372 25.874,0 27,0 Z M 2,23 0,32 9,30 27.5,11.5 l -7,-7 z m 20.362,-11.638 -14,14 -1.724,-1.724 14,-14 z"
         id="path4" />
    </symbol>
    <symbol
       id="calendar"
       viewBox="0 0 32 32">
      <title
         id="title5">calendar</title>
      <path
         d="m 10,12 h 4 v 4 h -4 z m 6,0 h 4 v 4 h -4 z m 6,0 h 4 v 4 H 22 Z M 4,24 h 4 v 4 H 4 Z m 6,0 h 4 v 4 h -4 z m 6,0 h 4 v 4 h -4 z m -6,-6 h 4 v 4 h -4 z m 6,0 h 4 v 4 h -4 z m 6,0 h 4 v 4 H 22 Z M 4,18 h 4 v 4 H 4 Z M 26,0 V 2 H 22 V 0 H 8 V 2 H 4 V 0 H 0 V 32 H 30 V 0 Z m 2,30 H 2 V 8 h 26 z"
         id="path5" />
    </symbol>
    <symbol
       id="users"
       viewBox="0 0 36 32">
      <title
         id="title6">users</title>
      <path
         d="m 24,24.082 v -1.649 c 2.203,-1.241 4,-4.337 4,-7.432 0,-4.971 0,-9 -6,-9 -6,0 -6,4.029 -6,9 0,3.096 1.797,6.191 4,7.432 v 1.649 C 13.216,24.637 8,27.97 8,32 h 28 c 0,-4.03 -5.216,-7.364 -12,-7.918 z"
         id="path6" />
      <path
         d="m 10.225,24.854 c 1.728,-1.13 3.877,-1.989 6.243,-2.513 -0.47,-0.556 -0.897,-1.176 -1.265,-1.844 C 14.253,18.771 13.75,16.87 13.75,15 c 0,-2.689 0,-5.228 0.956,-7.305 C 15.634,5.679 17.304,4.43 19.682,3.961 19.153,1.571 17.746,0 14,0 8,0 8,4.029 8,9 c 0,3.096 1.797,6.191 4,7.432 v 1.649 C 5.216,18.636 0,21.969 0,25.999 h 8.719 c 0.454,-0.403 0.956,-0.787 1.506,-1.146 z"
         id="path7" />
    </symbol>
    <symbol
       id="hour-glass"
       viewBox="0 0 32 32">
      <title
         id="title7">hour-glass</title>
      <path
         d="M 22.781,16 C 27.086,13.271 30,8.025 30,2 30,1.323 29.963,0.655 29.891,0 H 2.108 C 2.036,0.655 1.999,1.323 1.999,2 c 0,6.025 2.914,11.271 7.219,14 -4.305,2.729 -7.219,7.975 -7.219,14 0,0.677 0.037,1.345 0.109,2 H 29.891 C 29.963,31.345 30,30.677 30,30 30,23.975 27.086,18.729 22.781,16 Z M 5,30 C 5,24.159 7.505,19.206 12,17.572 V 14.429 C 7.505,12.795 5,7.842 5,2.001 v 0 h 22 c 0,5.841 -2.505,10.794 -7,12.428 v 3.143 c 4.495,1.634 7,6.587 7,12.428 z M 19.363,20.925 C 17.124,19.655 17,18.007 17,17.007 V 15 c 0,-1 0.119,-2.654 2.367,-3.927 C 20.57,10.374 21.611,9.312 22.4,8 H 9.601 c 0.79,1.313 1.832,2.376 3.036,3.075 2.239,1.27 2.363,2.918 2.363,3.918 V 17 c 0,1 -0.119,2.654 -2.367,3.927 C 10.364,22.245 8.672,24.855 8.161,28 h 15.677 c -0.511,-3.147 -2.204,-5.758 -4.475,-7.075 z"
         id="path8" />
    </symbol>
    <symbol
       id="cog"
       viewBox="0 0 32 32">
      <title
         id="title8">cog</title>
      <path
         d="m 29.181,19.07 c -1.679,-2.908 -0.669,-6.634 2.255,-8.328 L 28.291,5.295 c -0.898,0.527 -1.943,0.829 -3.058,0.829 -3.361,0 -6.085,-2.742 -6.085,-6.125 H 12.859 C 12.867,1.043 12.607,2.102 12.048,3.069 10.369,5.977 6.637,6.966 3.709,5.28 l -3.144,5.447 c 0.905,0.515 1.689,1.268 2.246,2.234 1.676,2.903 0.672,6.623 -2.241,8.319 l 3.145,5.447 c 0.895,-0.522 1.935,-0.82 3.044,-0.82 3.35,0 6.067,2.725 6.084,6.092 h 6.289 c -0.003,-1.034 0.259,-2.08 0.811,-3.038 1.676,-2.903 5.399,-3.894 8.325,-2.219 l 3.145,-5.447 C 30.514,20.78 29.735,20.029 29.181,19.069 Z M 16,22.479 c -3.578,0 -6.479,-2.901 -6.479,-6.479 0,-3.578 2.901,-6.479 6.479,-6.479 3.578,0 6.479,2.901 6.479,6.479 0,3.578 -2.901,6.479 -6.479,6.479 z"
         id="path9" />
    </symbol>
    <symbol
       id="attachment"
       viewBox="0 0 32 32">
      <title
         id="title9">attachment</title>
      <path
         d="M 20.807,10.22 18.777,8.191 8.627,18.339 c -1.682,1.681 -1.682,4.408 0,6.089 1.682,1.681 4.408,1.681 6.09,0 L 26.897,12.25 c 2.804,-2.802 2.804,-7.346 0,-10.148 -2.802,-2.803 -7.347,-2.803 -10.149,0 L 3.96,14.889 c -0.009,0.009 -0.019,0.018 -0.027,0.026 -3.909,3.909 -3.909,10.245 0,14.153 3.908,3.908 10.246,3.908 14.156,0 0.009,-0.009 0.016,-0.018 0.026,-0.027 l 0.001,0.001 8.729,-8.728 -2.031,-2.029 -8.729,8.727 c -0.009,0.008 -0.018,0.018 -0.026,0.026 -2.784,2.783 -7.312,2.783 -10.096,0 -2.783,-2.783 -2.783,-7.31 0,-10.093 0.01,-0.009 0.019,-0.018 0.028,-0.026 L 5.99,16.917 18.78,4.131 c 1.678,-1.679 4.411,-1.679 6.09,0 1.679,1.679 1.678,4.411 0,6.089 L 12.69,22.398 c -0.56,0.56 -1.47,0.56 -2.03,0 -0.559,-0.559 -0.559,-1.47 0,-2.029 L 20.81,10.22 Z"
         id="path10" />
    </symbol>
    <symbol
       id="cross"
       viewBox="0 0 32 32">
      <title
         id="title10">cross</title>
      <path
         d="m 31.708,25.708 c 0,0 0,0 0,0 L 22,16 31.708,6.292 c 0,0 0,0 0,0 0.105,-0.105 0.18,-0.227 0.229,-0.357 C 32.07,5.579 31.994,5.164 31.708,4.878 L 27.122,0.292 C 26.836,0.006 26.42,-0.069 26.065,0.063 c -0.13,0.048 -0.252,0.124 -0.357,0.228 0,0 0,0 0,0 L 16,9.999 6.292,0.291 c 0,0 0,0 0,0 C 6.187,0.187 6.065,0.111 5.935,0.063 5.579,-0.07 5.164,0.006 4.878,0.292 L 0.292,4.878 C 0.006,5.164 -0.069,5.58 0.063,5.935 c 0.049,0.13 0.124,0.252 0.229,0.357 0,0 0,0 0,0 L 10,16 0.292,25.708 c 0,0 0,0 0,0 -0.104,0.105 -0.18,0.227 -0.229,0.357 -0.133,0.355 -0.057,0.771 0.229,1.057 l 4.586,4.586 c 0.286,0.286 0.702,0.361 1.057,0.229 0.13,-0.049 0.252,-0.124 0.357,-0.229 0,0 0,0 0,0 L 16,22 l 9.708,9.708 c 0,0 0,0 0,0 0.105,0.105 0.227,0.18 0.357,0.229 0.356,0.133 0.771,0.057 1.057,-0.229 l 4.586,-4.586 c 0.286,-0.286 0.362,-0.702 0.229,-1.057 -0.049,-0.13 -0.124,-0.252 -0.229,-0.357 z"
         id="path11" />
    </symbol>
    <symbol
       id="checkmark"
       viewBox="0 0 32 32">
      <title
         id="title11">checkmark</title>
      <path
         d="M 27,4 12,19 5,12 0,17 12,29 32,9 Z"
         id="path12" />
    </symbol>
    <symbol
       id="checkbox-checked"
       viewBox="0 0 32 32">
      <title
         id="title12">checkbox-checked</title>
      <path
         d="M 28,0 H 4 C 1.8,0 0,1.8 0,4 v 24 c 0,2.2 1.8,4 4,4 h 24 c 2.2,0 4,-1.8 4,-4 V 4 C 32,1.8 30.2,0 28,0 Z M 14,24.828 6.586,17.414 9.414,14.586 14,19.172 l 9.586,-9.586 2.828,2.828 z"
         id="path13" />
    </symbol>
    <symbol
       id="checkbox-unchecked"
       viewBox="0 0 32 32">
      <title
         id="title13">checkbox-unchecked</title>
      <path
         d="M 28,0 H 4 C 1.8,0 0,1.8 0,4 v 24 c 0,2.2 1.8,4 4,4 h 24 c 2.2,0 4,-1.8 4,-4 V 4 C 32,1.8 30.2,0 28,0 Z m 0,28 H 4 V 4 h 24 z"
         id="path14" />
    </symbol>
    <symbol
       viewBox="0 0 56 32"
       id="sort-none">
      <path
         d="M 0,32 16.014,0.0940911 32.028,32 Z M 23.972,0 H 56 L 39.986,31.9059 Z"
         id="symbol16" />
    </symbol>
    <symbol
       viewBox="0 0 32 32"
       id="sort-desc">
      <path
         d="M -6.98099e-6,-7.25917e-6 H 32 L 16,32 Z"
         style="font-size:40px;line-height:1.25;letter-spacing:0px;word-spacing:0px"
         id="symbol17" />
    </symbol>
    <symbol
       viewBox="0 0 32 32"
       id="sort-ascd">
      <path
         d="M 0,32 16,0 32,32 Z"
         style="font-size:40px;line-height:1.25;letter-spacing:0px;word-spacing:0px;stroke-width:1.60943"
         id="symbol18" />
    </symbol>
  </defs>
</svg>
